<svg width="512" height="512" viewBox="0 0 512 512" fill="none" xmlns="http://www.w3.org/2000/svg">
  <rect width="512" height="512" rx="120" fill="#0F172A"/>
  <rect x="36" y="36" width="440" height="440" rx="96" fill="url(#paint0_linear)" fill-opacity="0.22"/>
  <path d="M152 168C177.333 146.667 209.333 136 248 136C288 136 320.667 146.667 346 168" stroke="#60A5FA" stroke-width="28" stroke-linecap="round"/>
  <path d="M360 344C334.667 365.333 302.667 376 264 376C224 376 191.333 365.333 166 344" stroke="#22C55E" stroke-width="28" stroke-linecap="round"/>
  <path d="M178 214H266" stroke="white" stroke-width="28" stroke-linecap="round"/>
  <path d="M178 256H246" stroke="white" stroke-width="28" stroke-linecap="round"/>
  <path d="M178 298H266" stroke="white" stroke-width="28" stroke-linecap="round"/>
  <path d="M332 200V312" stroke="white" stroke-width="28" stroke-linecap="round"/>
  <path d="M378 222C378 207.641 358.748 196 335 196C311.252 196 292 207.641 292 222C292 236.359 311.252 248 335 248C358.748 248 378 259.641 378 274C378 288.359 358.748 300 335 300C311.252 300 292 288.359 292 274" stroke="white" stroke-width="24" stroke-linecap="round"/>
  <defs>
    <linearGradient id="paint0_linear" x1="92" y1="84" x2="424" y2="428" gradientUnits="userSpaceOnUse">
      <stop stop-color="#3B82F6"/>
      <stop offset="1" stop-color="#22C55E"/>
    </linearGradient>
  </defs>
</svg>
